USFL
nRows=377
nColumns=2
inDegrees=yes
endheader
time	soleus_r	
14.4042	 25.173912	
14.4375	 25.140324	
14.4708	 25.191350	
14.504	 25.166776	
14.5373	 25.165093	
14.5706	 25.093686	
14.6038	 25.044133	
14.6371	 25.075323	
14.6704	 25.110353	
14.7036	 25.167373	
14.7369	 25.119029	
14.7702	 25.095912	
14.8034	 25.099632	
14.8367	 25.000241	
14.87	 24.961872	
14.9032	 25.017721	
14.9365	 24.925011	
14.9698	 24.924617	
15.003	 24.926000	
15.0363	 24.914841	
15.0696	 24.885027	
15.1028	 24.893770	
15.1361	 24.862021	
15.1694	 24.931745	
15.2026	 24.854874	
15.2359	 24.863924	
15.2692	 24.878204	
15.3024	 24.934523	
15.3357	 24.954988	
15.369	 24.957264	
15.4022	 24.938327	
15.4355	 24.859043	
15.4687	 24.866722	
15.502	 24.893144	
15.5353	 24.882048	
15.5685	 24.848416	
15.6018	 24.789566	
15.6351	 24.800576	
15.6683	 24.748667	
15.7016	 24.728734	
15.7349	 24.738405	
15.7681	 24.776072	
15.8014	 24.790055	
15.8347	 24.767370	
15.8679	 24.651819	
15.9012	 24.642063	
15.9345	 24.654992	
15.9677	 24.651729	
16.001	 24.646284	
16.0343	 24.713560	
16.0675	 24.725383	
16.1008	 24.716294	
16.1341	 24.694720	
16.1673	 24.687580	
16.2006	 24.656192	
16.2339	 24.629536	
16.2671	 24.605839	
16.3004	 24.616028	
16.3337	 24.584747	
16.3669	 24.560944	
16.4002	 24.543288	
16.4335	 24.553806	
16.4667	 24.575515	
16.5	 24.518398	
16.5333	 24.542012	
16.5665	 24.536442	
16.5998	 24.533964	
16.6331	 24.543630	
16.6663	 24.587618	
16.6996	 24.631802	
16.7329	 24.640327	
16.7661	 24.646202	
16.7994	 24.650789	
16.8327	 24.647867	
16.8659	 24.627454	
16.8992	 24.567860	
16.9325	 24.421078	
16.9657	 24.408505	
16.999	 24.378703	
17.0323	 24.517434	
17.0655	 24.557254	
17.0988	 24.541367	
17.1321	 24.549647	
17.1653	 24.521868	
17.1986	 24.528927	
17.2319	 24.504832	
17.2651	 24.466996	
17.2984	 24.378335	
17.3317	 24.377319	
17.3649	 24.358527	
17.3982	 24.308892	
17.4315	 24.263136	
17.4647	 24.258799	
17.498	 24.229248	
17.5312	 24.219986	
17.5645	 24.240177	
17.5978	 24.105342	
17.631	 24.062985	
17.6643	 24.034031	
17.6976	 23.998396	
17.7308	 24.013793	
17.7641	 24.052286	
17.7974	 24.124394	
17.8306	 24.146753	
17.8639	 24.116978	
17.8972	 24.060432	
17.9304	 24.040740	
17.9637	 24.097178	
17.997	 24.098555	
18.0302	 24.090949	
18.0635	 24.079867	
18.0968	 24.099163	
18.13	 24.021310	
18.1633	 24.011427	
18.1966	 24.008510	
18.2298	 23.972826	
18.2631	 23.961422	
18.2964	 23.955805	
18.3296	 23.939861	
18.3629	 23.951863	
18.3962	 23.954954	
18.4294	 23.985005	
18.4627	 24.004468	
18.496	 23.964548	
18.5292	 23.974139	
18.5625	 23.986435	
18.5958	 23.975358	
18.629	 23.983850	
18.6623	 23.988309	
18.6956	 23.984873	
18.7288	 23.935212	
18.7621	 23.956125	
18.7954	 23.983940	
18.8286	 24.015758	
18.8619	 24.014548	
18.8952	 24.029753	
18.9284	 24.059839	
18.9617	 24.049527	
18.995	 24.069273	
19.0282	 24.051419	
19.0615	 24.052887	
19.0948	 24.043072	
19.128	 24.069413	
19.1613	 24.058448	
19.1946	 24.080185	
19.2278	 24.057725	
19.2611	 24.051492	
19.2944	 24.027731	
19.3276	 24.046097	
19.3609	 24.004489	
19.3942	 23.967269	
19.4274	 23.991743	
19.4607	 23.961408	
19.494	 23.966008	
19.5272	 23.982787	
19.5605	 23.956443	
19.5937	 23.971304	
19.627	 23.961050	
19.6603	 24.028174	
19.6935	 24.055605	
19.7268	 24.124302	
19.7601	 24.236771	
19.7933	 24.199151	
19.8266	 24.226079	
19.8599	 24.218171	
19.8931	 24.152930	
19.9264	 24.148540	
19.9597	 24.169230	
19.9929	 24.149883	
20.0262	 24.161844	
20.0595	 24.130615	
20.0927	 24.096548	
20.126	 24.098189	
20.1593	 24.032547	
20.1925	 24.062580	
20.2258	 24.004569	
20.2591	 23.989170	
20.2923	 24.005207	
20.3256	 23.887414	
20.3589	 23.857190	
20.3921	 23.865162	
20.4254	 23.836485	
20.4587	 23.868438	
20.4919	 23.862292	
20.5252	 24.090485	
20.5585	 24.093412	
20.5917	 24.097619	
20.625	 24.088230	
20.6583	 24.103348	
20.6915	 24.086668	
20.7248	 24.072319	
20.7581	 24.093822	
20.7913	 24.051656	
20.8246	 24.072584	
20.8579	 24.079834	
20.8911	 24.060066	
20.9244	 24.079917	
20.9577	 24.107577	
20.9909	 24.080786	
21.0242	 24.080296	
21.0575	 24.093757	
21.0907	 24.108563	
21.124	 24.107243	
21.1573	 24.076033	
21.1905	 24.064352	
21.2238	 24.077313	
21.2571	 24.065334	
21.2903	 24.058621	
21.3236	 24.071470	
21.3569	 24.087168	
21.3901	 24.096271	
21.4234	 24.103313	
21.4567	 24.130229	
21.4899	 24.131894	
21.5232	 24.139895	
21.5565	 24.148106	
21.5897	 24.128895	
21.623	 24.104260	
21.6562	 24.068176	
21.6895	 24.137569	
21.7228	 24.160775	
21.756	 24.161872	
21.7893	 24.117739	
21.8226	 24.141891	
21.8558	 24.147688	
21.8891	 24.147725	
21.9224	 24.132739	
21.9556	 24.147766	
21.9889	 24.127883	
22.0222	 24.107787	
22.0554	 24.106749	
22.0887	 24.094393	
22.122	 24.097104	
22.1552	 24.072115	
22.1885	 24.082951	
22.2218	 24.091936	
22.255	 24.121539	
22.2883	 24.134629	
22.3216	 24.144920	
22.3548	 24.129017	
22.3881	 24.105343	
22.4214	 24.116745	
22.4546	 24.107333	
22.4879	 24.108490	
22.5212	 24.114536	
22.5544	 24.102795	
22.5877	 24.091809	
22.621	 24.108030	
22.6542	 24.083291	
22.6875	 24.043291	
22.7208	 24.033739	
22.754	 24.004048	
22.7873	 23.978382	
22.8206	 23.952922	
22.8538	 23.927419	
22.8871	 23.951155	
22.9204	 23.946387	
22.9536	 23.948872	
22.9869	 23.931663	
23.0202	 23.944633	
23.0534	 23.996412	
23.0867	 24.135156	
23.12	 24.191788	
23.1532	 24.153234	
23.1865	 24.116445	
23.2198	 24.092027	
23.253	 24.128221	
23.2863	 24.153128	
23.3196	 24.142021	
23.3528	 24.191286	
23.3861	 24.233251	
23.4194	 24.212190	
23.4526	 24.179673	
23.4859	 24.161889	
23.5192	 24.188521	
23.5524	 24.178184	
23.5857	 24.168036	
23.619	 24.163330	
23.6522	 24.159605	
23.6855	 24.157044	
23.7187	 24.166526	
23.752	 24.152265	
23.7853	 24.164918	
23.8185	 24.173392	
23.8518	 24.194462	
23.8851	 24.175676	
23.9183	 24.180335	
23.9516	 24.166985	
23.9849	 24.191416	
24.0181	 24.179590	
24.0514	 24.160837	
24.0847	 24.201115	
24.1179	 24.197835	
24.1512	 24.147902	
24.1845	 24.174639	
24.2177	 24.194603	
24.251	 24.237691	
24.2843	 24.247046	
24.3175	 24.255783	
24.3508	 24.269595	
24.3841	 24.265312	
24.4173	 24.244616	
24.4506	 24.284130	
24.4839	 24.309528	
24.5171	 24.337185	
24.5504	 24.349354	
24.5837	 24.350899	
24.6169	 24.346835	
24.6502	 24.317142	
24.6835	 24.334658	
24.7167	 24.358074	
24.75	 24.360179	
24.7833	 24.373058	
24.8165	 24.384737	
24.8498	 24.375786	
24.8831	 24.388696	
24.9163	 24.362691	
24.9496	 24.373069	
24.9829	 24.352357	
25.0161	 24.406950	
25.0494	 24.452962	
25.0827	 24.414010	
25.1159	 24.441618	
25.1492	 24.476827	
25.1825	 24.406363	
25.2157	 24.481779	
25.249	 24.425128	
25.2823	 24.446741	
25.3155	 24.429005	
25.3488	 24.502976	
25.3821	 24.537974	
25.4153	 24.542524	
25.4486	 24.497018	
25.4819	 24.419543	
25.5151	 24.448121	
25.5484	 24.463448	
25.5817	 24.473131	
25.6149	 24.491873	
25.6482	 24.507504	
25.6815	 24.556431	
25.7147	 24.539390	
25.748	 24.515593	
25.7812	 24.488651	
25.8145	 24.445349	
25.8478	 24.488571	
25.881	 24.510948	
25.9143	 24.493520	
25.9476	 24.488488	
25.9808	 24.506261	
26.0141	 24.526295	
26.0474	 24.545061	
26.0806	 24.609242	
26.1139	 24.648747	
26.1472	 24.596569	
26.1804	 24.655267	
26.2137	 24.657285	
26.247	 24.711758	
26.2802	 24.631391	
26.3135	 24.669135	
26.3468	 24.731971	
26.38	 24.721578	
26.4133	 24.771516	
26.4466	 24.695392	
26.4798	 24.658220	
26.5131	 24.639877	
26.5464	 24.646954	
26.5796	 24.645272	
26.6129	 24.661232	
26.6462	 24.716578	
26.6794	 24.718633	
26.7127	 24.722880	
26.746	 24.744316	
26.7792	 24.752517	
26.8125	 24.722245	
26.8458	 24.735760	
26.879	 24.736268	
26.9123	 24.749784	
